<svg width="170" height="44" viewBox="0 0 170 44" fill="none" xmlns="http://www.w3.org/2000/svg">
<rect x="0.890625" y="0.125" width="168.889" height="43.5556" rx="3.55556" fill="#233650"/>
<path d="M40.7419 33.7572C39.3061 35.1175 37.7383 34.9028 36.2292 34.2584C34.6322 33.5997 33.167 33.5711 31.4821 34.2584C29.3723 35.1462 28.2587 34.8884 26.9987 33.7572C19.8487 26.5547 20.9036 15.5862 29.0206 15.1852C30.9986 15.2855 32.3759 16.2449 33.5333 16.3308C35.2622 15.9871 36.9179 14.9991 38.764 15.128C40.9764 15.2998 42.6466 16.1589 43.7455 17.7054C39.1742 20.3831 40.2584 26.2683 44.4488 27.915C43.6136 30.0629 42.5294 32.1964 40.7273 33.7715L40.7419 33.7572ZM33.3868 15.0993C33.167 11.9061 35.819 9.27142 38.8665 9.01367C39.2914 12.708 35.438 15.4573 33.3868 15.0993Z" fill="white"/>
<path d="M57.1744 16.2363V15.6319H58.97C59.45 15.6319 59.8737 15.5282 60.2411 15.3208C60.6085 15.1074 60.8959 14.8171 61.1033 14.4497C61.3107 14.0763 61.4144 13.6497 61.4144 13.1697C61.4144 12.6897 61.3107 12.266 61.1033 11.8986C60.8959 11.5311 60.6085 11.2437 60.2411 11.0363C59.8737 10.823 59.45 10.7163 58.97 10.7163H57.1922V10.1208H58.9877C59.4322 10.1208 59.8411 10.1978 60.2144 10.3519C60.5937 10.5 60.9226 10.7134 61.2011 10.9919C61.4855 11.2645 61.7048 11.5874 61.8589 11.9608C62.0129 12.3282 62.09 12.7341 62.09 13.1786C62.09 13.6111 62.0129 14.0141 61.8589 14.3874C61.7048 14.7608 61.4885 15.0867 61.21 15.3652C60.9314 15.6378 60.6026 15.8511 60.2233 16.0052C59.85 16.1593 59.444 16.2363 59.0055 16.2363H57.1744ZM56.7744 16.2363V10.1208H57.4233V16.2363H56.7744ZM66.1011 16.3252C65.6686 16.3252 65.2656 16.2452 64.8923 16.0852C64.5248 15.9193 64.2019 15.6941 63.9234 15.4097C63.6448 15.1193 63.4256 14.7845 63.2656 14.4052C63.1115 14.02 63.0345 13.6082 63.0345 13.1697C63.0345 12.7252 63.1115 12.3134 63.2656 11.9341C63.4197 11.5548 63.636 11.223 63.9145 10.9386C64.193 10.6541 64.516 10.4319 64.8834 10.2719C65.2508 10.1119 65.6508 10.0319 66.0834 10.0319C66.516 10.0319 66.916 10.1119 67.2834 10.2719C67.6567 10.4319 67.9826 10.6541 68.2611 10.9386C68.5397 11.223 68.756 11.5578 68.91 11.943C69.0641 12.3223 69.1411 12.7341 69.1411 13.1786C69.1411 13.6171 69.0641 14.0289 68.91 14.4141C68.756 14.7934 68.5397 15.1252 68.2611 15.4097C67.9886 15.6941 67.6686 15.9193 67.3011 16.0852C66.9337 16.2452 66.5337 16.3252 66.1011 16.3252ZM66.0834 15.6941C66.5456 15.6941 66.9545 15.5845 67.31 15.3652C67.6715 15.146 67.953 14.8467 68.1545 14.4674C68.3619 14.0882 68.4656 13.6556 68.4656 13.1697C68.4656 12.8082 68.4063 12.4763 68.2878 12.1741C68.1693 11.866 68.0034 11.5993 67.79 11.3741C67.5767 11.143 67.3248 10.9652 67.0345 10.8408C66.75 10.7163 66.433 10.6541 66.0834 10.6541C65.6271 10.6541 65.2182 10.7637 64.8567 10.983C64.5011 11.1963 64.2197 11.4926 64.0123 11.8719C63.8108 12.2511 63.71 12.6837 63.71 13.1697C63.71 13.5311 63.7693 13.866 63.8878 14.1741C64.0063 14.4823 64.1723 14.7519 64.3856 14.983C64.5989 15.2082 64.8508 15.383 65.1411 15.5074C65.4315 15.6319 65.7456 15.6941 66.0834 15.6941ZM71.6368 16.2363L69.6635 10.1208H70.3124L71.9746 15.383H71.7791L73.4235 10.1208H73.9124L75.5657 15.383H75.3613L77.0235 10.1208H77.6813L75.6991 16.2363H75.2191L73.5746 10.983H73.7613L72.1168 16.2363H71.6368ZM78.797 16.2363V10.1208H79.2592L79.4459 10.8941V16.2363H78.797ZM83.0281 16.2363L79.1614 10.9919L79.2592 10.1208L83.117 15.3652L83.0281 16.2363ZM83.0281 16.2363L82.8325 15.4986V10.1208H83.4903V16.2363H83.0281ZM85.047 16.2363V10.1208H85.6959V16.2363H85.047ZM85.4736 16.2363V15.6408H88.8425V16.2363H85.4736ZM92.1341 16.3252C91.7015 16.3252 91.2986 16.2452 90.9252 16.0852C90.5578 15.9193 90.2349 15.6941 89.9564 15.4097C89.6778 15.1193 89.4586 14.7845 89.2986 14.4052C89.1445 14.02 89.0675 13.6082 89.0675 13.1697C89.0675 12.7252 89.1445 12.3134 89.2986 11.9341C89.4526 11.5548 89.6689 11.223 89.9475 10.9386C90.226 10.6541 90.5489 10.4319 90.9164 10.2719C91.2838 10.1119 91.6838 10.0319 92.1164 10.0319C92.5489 10.0319 92.9489 10.1119 93.3164 10.2719C93.6897 10.4319 94.0156 10.6541 94.2941 10.9386C94.5726 11.223 94.7889 11.5578 94.943 11.943C95.0971 12.3223 95.1741 12.7341 95.1741 13.1786C95.1741 13.6171 95.0971 14.0289 94.943 14.4141C94.7889 14.7934 94.5726 15.1252 94.2941 15.4097C94.0215 15.6941 93.7015 15.9193 93.3341 16.0852C92.9667 16.2452 92.5667 16.3252 92.1341 16.3252ZM92.1164 15.6941C92.5786 15.6941 92.9875 15.5845 93.343 15.3652C93.7045 15.146 93.986 14.8467 94.1875 14.4674C94.3949 14.0882 94.4986 13.6556 94.4986 13.1697C94.4986 12.8082 94.4393 12.4763 94.3208 12.1741C94.2023 11.866 94.0364 11.5993 93.823 11.3741C93.6097 11.143 93.3578 10.9652 93.0675 10.8408C92.783 10.7163 92.466 10.6541 92.1164 10.6541C91.6601 10.6541 91.2512 10.7637 90.8897 10.983C90.5341 11.1963 90.2526 11.4926 90.0452 11.8719C89.8438 12.2511 89.743 12.6837 89.743 13.1697C89.743 13.5311 89.8023 13.866 89.9208 14.1741C90.0393 14.4823 90.2052 14.7519 90.4186 14.983C90.6319 15.2082 90.8838 15.383 91.1741 15.5074C91.4645 15.6319 91.7786 15.6941 92.1164 15.6941ZM95.5051 16.2363L98.0118 10.1208H98.5007L100.981 16.2363H100.278L98.1184 10.8319H98.3762L96.1984 16.2363H95.5051ZM96.6518 14.6452V14.0674H99.8518V14.6452H96.6518ZM102.426 16.2363V15.6319H104.222C104.702 15.6319 105.125 15.5282 105.493 15.3208C105.86 15.1074 106.148 14.8171 106.355 14.4497C106.562 14.0763 106.666 13.6497 106.666 13.1697C106.666 12.6897 106.562 12.266 106.355 11.8986C106.148 11.5311 105.86 11.2437 105.493 11.0363C105.125 10.823 104.702 10.7163 104.222 10.7163H102.444V10.1208H104.239C104.684 10.1208 105.093 10.1978 105.466 10.3519C105.845 10.5 106.174 10.7134 106.453 10.9919C106.737 11.2645 106.957 11.5874 107.111 11.9608C107.265 12.3282 107.342 12.7341 107.342 13.1786C107.342 13.6111 107.265 14.0141 107.111 14.3874C106.957 14.7608 106.74 15.0867 106.462 15.3652C106.183 15.6378 105.854 15.8511 105.475 16.0052C105.102 16.1593 104.696 16.2363 104.257 16.2363H102.426ZM102.026 16.2363V10.1208H102.675V16.2363H102.026ZM113.263 16.3252C112.83 16.3252 112.427 16.2452 112.054 16.0852C111.686 15.9193 111.363 15.6941 111.085 15.4097C110.806 15.1193 110.587 14.7845 110.427 14.4052C110.273 14.02 110.196 13.6082 110.196 13.1697C110.196 12.7252 110.273 12.3134 110.427 11.9341C110.581 11.5548 110.797 11.223 111.076 10.9386C111.354 10.6541 111.677 10.4319 112.045 10.2719C112.412 10.1119 112.812 10.0319 113.245 10.0319C113.677 10.0319 114.077 10.1119 114.445 10.2719C114.818 10.4319 115.144 10.6541 115.423 10.9386C115.701 11.223 115.917 11.5578 116.071 11.943C116.226 12.3223 116.303 12.7341 116.303 13.1786C116.303 13.6171 116.226 14.0289 116.071 14.4141C115.917 14.7934 115.701 15.1252 115.423 15.4097C115.15 15.6941 114.83 15.9193 114.463 16.0852C114.095 16.2452 113.695 16.3252 113.263 16.3252ZM113.245 15.6941C113.707 15.6941 114.116 15.5845 114.471 15.3652C114.833 15.146 115.114 14.8467 115.316 14.4674C115.523 14.0882 115.627 13.6556 115.627 13.1697C115.627 12.8082 115.568 12.4763 115.449 12.1741C115.331 11.866 115.165 11.5993 114.951 11.3741C114.738 11.143 114.486 10.9652 114.196 10.8408C113.911 10.7163 113.594 10.6541 113.245 10.6541C112.789 10.6541 112.38 10.7637 112.018 10.983C111.663 11.1963 111.381 11.4926 111.174 11.8719C110.972 12.2511 110.871 12.6837 110.871 13.1697C110.871 13.5311 110.931 13.866 111.049 14.1741C111.168 14.4823 111.334 14.7519 111.547 14.983C111.76 15.2082 112.012 15.383 112.303 15.5074C112.593 15.6319 112.907 15.6941 113.245 15.6941ZM117.564 16.2363V10.1208H118.027L118.213 10.8941V16.2363H117.564ZM121.795 16.2363L117.929 10.9919L118.027 10.1208L121.884 15.3652L121.795 16.2363ZM121.795 16.2363L121.6 15.4986V10.1208H122.258V16.2363H121.795ZM127.283 16.2363V10.2897H127.941V16.2363H127.283ZM125.132 10.7163V10.1208H130.092V10.7163H125.132ZM131.201 16.2363V10.1208H131.85V16.2363H131.201ZM135.21 16.2363V10.1208H135.859V16.2363H135.21ZM131.628 13.3741V12.7786H135.388V13.3741H131.628ZM137.425 16.2363V10.1208H138.074V16.2363H137.425ZM137.852 16.2363V15.6408H141.452V16.2363H137.852ZM137.852 13.3919V12.8141H141.168V13.3919H137.852ZM137.852 10.7163V10.1208H141.399V10.7163H137.852Z" fill="white"/>
<path d="M55.5503 33.2344L59.5894 23.3642H60.5565L64.5814 33.2344H63.1307L59.8169 24.8859H60.3147L56.9725 33.2344H55.5503ZM57.4703 31.0015V29.8353H62.6614V31.0015H57.4703ZM69.5064 33.3766C68.9944 33.3766 68.5298 33.2723 68.1126 33.0637C67.7049 32.8456 67.3778 32.547 67.1313 32.1677C66.8847 31.7884 66.7473 31.357 66.7188 30.8735V28.8397C66.7473 28.3467 66.8847 27.9153 67.1313 27.5455C67.3873 27.1662 67.7191 26.8723 68.1268 26.6637C68.544 26.4456 69.0039 26.3366 69.5064 26.3366C70.1227 26.3366 70.6773 26.493 71.1704 26.8059C71.6729 27.1188 72.0664 27.5407 72.3508 28.0717C72.6353 28.6027 72.7775 29.2 72.7775 29.8637C72.7775 30.5274 72.6353 31.1247 72.3508 31.6557C72.0664 32.1867 71.6729 32.6086 71.1704 32.9215C70.6773 33.2249 70.1227 33.3766 69.5064 33.3766ZM65.9508 36.0646V26.4788H67.2308V28.2566L66.989 29.8922L67.2308 31.5419V36.0646H65.9508ZM69.293 32.1677C69.7197 32.1677 70.0942 32.0682 70.4166 31.869C70.739 31.6699 70.995 31.3997 71.1846 31.0584C71.3742 30.7076 71.469 30.3046 71.469 29.8495C71.469 29.4039 71.3742 29.0056 71.1846 28.6548C70.995 28.304 70.739 28.0338 70.4166 27.8442C70.0942 27.645 69.7244 27.5455 69.3073 27.5455C68.8806 27.5455 68.5061 27.645 68.1837 27.8442C67.8613 28.0338 67.6101 28.304 67.4299 28.6548C67.2498 29.0056 67.1597 29.4086 67.1597 29.8637C67.1597 30.3093 67.245 30.7076 67.4157 31.0584C67.5959 31.3997 67.8471 31.6699 68.1695 31.869C68.5013 32.0682 68.8759 32.1677 69.293 32.1677ZM77.7842 33.3766C77.2722 33.3766 76.8076 33.2723 76.3904 33.0637C75.9827 32.8456 75.6556 32.547 75.409 32.1677C75.1625 31.7884 75.025 31.357 74.9966 30.8735V28.8397C75.025 28.3467 75.1625 27.9153 75.409 27.5455C75.665 27.1662 75.9969 26.8723 76.4046 26.6637C76.8218 26.4456 77.2816 26.3366 77.7842 26.3366C78.4004 26.3366 78.9551 26.493 79.4482 26.8059C79.9507 27.1188 80.3442 27.5407 80.6286 28.0717C80.913 28.6027 81.0553 29.2 81.0553 29.8637C81.0553 30.5274 80.913 31.1247 80.6286 31.6557C80.3442 32.1867 79.9507 32.6086 79.4482 32.9215C78.9551 33.2249 78.4004 33.3766 77.7842 33.3766ZM74.2286 36.0646V26.4788H75.5086V28.2566L75.2668 29.8922L75.5086 31.5419V36.0646H74.2286ZM77.5708 32.1677C77.9975 32.1677 78.372 32.0682 78.6944 31.869C79.0167 31.6699 79.2727 31.3997 79.4624 31.0584C79.652 30.7076 79.7468 30.3046 79.7468 29.8495C79.7468 29.4039 79.652 29.0056 79.4624 28.6548C79.2727 28.304 79.0167 28.0338 78.6944 27.8442C78.372 27.645 78.0022 27.5455 77.585 27.5455C77.1584 27.5455 76.7839 27.645 76.4615 27.8442C76.1391 28.0338 75.8879 28.304 75.7077 28.6548C75.5276 29.0056 75.4375 29.4086 75.4375 29.8637C75.4375 30.3093 75.5228 30.7076 75.6935 31.0584C75.8736 31.3997 76.1249 31.6699 76.4473 31.869C76.7791 32.0682 77.1536 32.1677 77.5708 32.1677ZM88.4372 33.3766C87.6597 33.3766 86.996 33.2344 86.446 32.9499C85.8961 32.6655 85.4078 32.253 84.9812 31.7126L85.8914 30.8024C86.2043 31.2385 86.5646 31.5704 86.9723 31.7979C87.38 32.016 87.8825 32.125 88.4798 32.125C89.0677 32.125 89.537 31.997 89.8878 31.741C90.2481 31.485 90.4283 31.1342 90.4283 30.6886C90.4283 30.3188 90.3429 30.0202 90.1723 29.7926C90.0016 29.565 89.7693 29.3802 89.4754 29.2379C89.1909 29.0862 88.878 28.9535 88.5367 28.8397C88.1954 28.7164 87.854 28.5884 87.5127 28.4557C87.1714 28.3135 86.8585 28.1428 86.574 27.9437C86.2896 27.7351 86.0573 27.4649 85.8772 27.133C85.7065 26.8012 85.6212 26.384 85.6212 25.8815C85.6212 25.3221 85.7539 24.848 86.0194 24.4593C86.2943 24.061 86.6641 23.7576 87.1287 23.549C87.6028 23.331 88.1337 23.2219 88.7216 23.2219C89.3663 23.2219 89.9447 23.3499 90.4567 23.6059C90.9687 23.8524 91.3859 24.1796 91.7083 24.5873L90.798 25.4975C90.5041 25.1562 90.1865 24.9002 89.8452 24.7295C89.5133 24.5588 89.1293 24.4735 88.6932 24.4735C88.1622 24.4735 87.7403 24.592 87.4274 24.829C87.1145 25.0566 86.958 25.379 86.958 25.7962C86.958 26.128 87.0434 26.3982 87.214 26.6068C87.3942 26.8059 87.6265 26.9766 87.9109 27.1188C88.1954 27.261 88.5083 27.3938 88.8496 27.517C89.2004 27.6308 89.5465 27.7588 89.8878 27.901C90.2292 28.0433 90.542 28.2234 90.8265 28.4415C91.1109 28.6596 91.3385 28.944 91.5092 29.2948C91.6893 29.6362 91.7794 30.0676 91.7794 30.589C91.7794 31.4613 91.476 32.144 90.8692 32.637C90.2718 33.1301 89.4612 33.3766 88.4372 33.3766ZM94.3918 33.2344V23.6486H95.6718V33.2344H94.3918ZM92.7278 27.645V26.4788H97.3358V27.645H92.7278ZM101.468 33.3766C100.804 33.3766 100.207 33.2202 99.6756 32.9073C99.1446 32.5944 98.7227 32.1724 98.4098 31.6415C98.0969 31.101 97.9405 30.499 97.9405 29.8353C97.9405 29.181 98.0969 28.5932 98.4098 28.0717C98.7227 27.5407 99.1446 27.1188 99.6756 26.8059C100.207 26.493 100.804 26.3366 101.468 26.3366C102.122 26.3366 102.714 26.493 103.245 26.8059C103.786 27.1093 104.212 27.5265 104.525 28.0575C104.838 28.5884 104.995 29.181 104.995 29.8353C104.995 30.499 104.838 31.101 104.525 31.6415C104.212 32.1724 103.786 32.5944 103.245 32.9073C102.714 33.2202 102.122 33.3766 101.468 33.3766ZM101.468 32.1393C101.894 32.1393 102.274 32.0397 102.605 31.8406C102.937 31.6415 103.198 31.3713 103.388 31.0299C103.577 30.6791 103.672 30.2809 103.672 29.8353C103.672 29.3991 103.572 29.0104 103.373 28.669C103.184 28.3277 102.923 28.0622 102.591 27.8726C102.269 27.6735 101.894 27.5739 101.468 27.5739C101.041 27.5739 100.662 27.6735 100.33 27.8726C99.998 28.0622 99.7372 28.3277 99.5476 28.669C99.358 29.0104 99.2632 29.3991 99.2632 29.8353C99.2632 30.2809 99.358 30.6791 99.5476 31.0299C99.7372 31.3713 99.998 31.6415 100.33 31.8406C100.662 32.0397 101.041 32.1393 101.468 32.1393ZM106.437 33.2344V26.4788H107.717V33.2344H106.437ZM107.717 29.3802L107.233 29.1668C107.233 28.304 107.432 27.6166 107.831 27.1046C108.229 26.5926 108.803 26.3366 109.552 26.3366C109.893 26.3366 110.201 26.3982 110.476 26.5215C110.751 26.6353 111.007 26.8296 111.244 27.1046L110.405 27.9722C110.263 27.8204 110.106 27.7114 109.936 27.645C109.765 27.5787 109.566 27.5455 109.338 27.5455C108.864 27.5455 108.475 27.6972 108.172 28.0006C107.869 28.304 107.717 28.7639 107.717 29.3802ZM115.052 33.3766C114.379 33.3766 113.772 33.2249 113.231 32.9215C112.691 32.6086 112.264 32.1867 111.951 31.6557C111.639 31.1247 111.482 30.5227 111.482 29.8495C111.482 29.1858 111.634 28.5884 111.937 28.0575C112.25 27.5265 112.667 27.1093 113.189 26.8059C113.72 26.493 114.312 26.3366 114.967 26.3366C115.592 26.3366 116.142 26.4788 116.616 26.7633C117.1 27.0477 117.474 27.4412 117.74 27.9437C118.015 28.4462 118.152 29.0151 118.152 29.6504C118.152 29.7452 118.148 29.8495 118.138 29.9633C118.129 30.0676 118.11 30.1908 118.081 30.333H112.378V29.2664H117.399L116.929 29.6788C116.929 29.2237 116.849 28.8397 116.687 28.5268C116.526 28.2044 116.299 27.9579 116.005 27.7873C115.711 27.6071 115.355 27.517 114.938 27.517C114.502 27.517 114.118 27.6119 113.786 27.8015C113.454 27.9911 113.198 28.2566 113.018 28.5979C112.838 28.9393 112.748 29.3422 112.748 29.8068C112.748 30.2809 112.843 30.6981 113.032 31.0584C113.222 31.4092 113.492 31.6842 113.843 31.8833C114.194 32.0729 114.597 32.1677 115.052 32.1677C115.431 32.1677 115.777 32.1013 116.09 31.9686C116.413 31.8359 116.687 31.6367 116.915 31.3713L117.74 32.2104C117.418 32.5896 117.019 32.8788 116.545 33.0779C116.081 33.277 115.583 33.3766 115.052 33.3766Z" fill="white"/>
</svg>
