<svg width="100" height="50" viewBox="0 0 100 50" fill="none" xmlns="http://www.w3.org/2000/svg">
<path d="M61.7724 15.1768C62.188 15.9337 62.5966 16.6803 63.0101 17.4245C63.3175 17.9777 63.634 18.5268 63.9417 19.0799C64.142 19.44 64.3399 19.8015 64.5259 20.1681C64.5761 20.267 64.5988 20.387 64.5991 20.4974C64.6037 22.3812 64.6023 24.2651 64.6023 26.1489C64.6023 26.3997 64.5848 26.4154 64.3144 26.4154C62.9829 26.4154 61.6517 26.4155 60.3201 26.4154C60.0661 26.4154 60.0392 26.3911 60.0389 26.1551C60.0389 24.407 60.0207 22.6586 60.0528 20.9109C60.0602 20.5124 59.9094 20.2005 59.7339 19.8752C59.4816 19.4068 59.2224 18.9415 58.967 18.4745C58.6927 17.9732 58.4184 17.4721 58.1466 16.9698C57.8144 16.3562 57.4868 15.7405 57.1532 15.1276C56.8273 14.5293 56.4947 13.9345 56.1688 13.3363C55.8482 12.7472 55.5345 12.1546 55.2138 11.5654C54.7514 10.7165 54.2849 9.86963 53.8219 9.02114C53.5567 8.53475 53.2953 8.04633 53.0298 7.56013C52.9691 7.44955 53.0005 7.39585 53.1303 7.38816C53.1708 7.38578 53.2116 7.38663 53.2521 7.38663C54.5721 7.3865 55.8918 7.38872 57.2115 7.3838C57.3964 7.38311 57.5 7.43694 57.589 7.59949C58.2112 8.73816 58.8497 9.86895 59.4781 11.0047C59.7835 11.5571 60.0738 12.1168 60.3784 12.6696C60.7612 13.3637 61.1516 14.054 61.5383 14.7463C61.6161 14.8853 61.6911 15.0257 61.7724 15.1768Z" fill="#233650"/>
<path d="M35.3129 20.7062C35.107 20.1747 34.9043 19.6557 34.7022 19.1365C34.4904 18.5919 34.28 18.0466 34.0672 17.5023C33.9216 17.1308 33.7726 16.7606 33.6257 16.3897C33.4199 15.8718 33.2129 15.3543 33.0093 14.8356C32.778 14.2458 32.55 13.6548 32.3202 13.0644C31.916 12.026 31.5138 10.9867 31.1061 9.94946C30.8062 9.1866 30.4996 8.42605 30.1942 7.66511C30.1027 7.43707 30.137 7.38793 30.4023 7.38787C31.6932 7.38764 32.9841 7.38767 34.2751 7.38777C34.5162 7.3878 34.5553 7.42309 34.637 7.63569C34.898 8.31361 35.166 8.98921 35.4301 9.66608C35.6409 10.2056 35.8481 10.7461 36.0596 11.2853C36.3087 11.9213 36.5617 12.556 36.8112 13.1919C37.0725 13.8583 37.3315 14.5255 37.5925 15.192C37.8078 15.7414 38.0269 16.2896 38.2408 16.8395C38.4488 17.3742 38.6508 17.9109 38.8588 18.4457C39.005 18.8226 39.1567 19.1978 39.3054 19.574C39.5144 20.1025 39.7238 20.6309 39.931 21.16C40.2004 21.8469 40.468 22.5343 40.736 23.2217C40.9901 23.8733 41.2423 24.5255 41.4974 25.1767C41.6293 25.5126 41.7633 25.8478 41.9001 26.1818C41.9845 26.3878 41.9674 26.417 41.7288 26.4172C40.5312 26.4179 39.3333 26.4174 38.1354 26.4173C38.0656 26.4173 37.9958 26.4183 37.926 26.4171C37.5419 26.4104 37.5761 26.4934 37.4033 26.0443C37.2446 25.6314 37.0774 25.2213 36.9162 24.8093C36.7585 24.4075 36.605 24.0044 36.4473 23.6027C36.1894 22.9469 35.9287 22.292 35.6709 21.6362C35.5508 21.3309 35.4343 21.0245 35.3129 20.7062Z" fill="#233650"/>
<path d="M69.7941 10.6823C69.6259 10.9858 69.4626 11.278 69.3035 11.5723C68.9615 12.2052 68.6224 12.8395 68.2808 13.4725C67.7793 14.4012 67.2772 15.3294 66.7747 16.2575C66.623 16.5378 66.4673 16.8163 66.3159 17.0967C66.2594 17.2012 66.1568 17.2228 66.0647 17.1833C65.7405 17.044 65.3905 16.9306 65.11 16.7335C64.491 16.2988 64.1333 15.6927 63.926 14.9961C63.7889 14.5358 63.7707 14.0669 63.7275 13.5986C63.7205 13.5236 63.7543 13.4377 63.7924 13.3678C64.1633 12.687 64.5412 12.0096 64.9128 11.3292C65.2024 10.7985 65.4847 10.2643 65.7723 9.73266C66.1564 9.02295 66.5448 8.31538 66.9255 7.60403C67.011 7.44415 67.1233 7.38254 67.3212 7.38381C68.6409 7.39218 69.9609 7.38713 71.2806 7.3901C71.3563 7.39029 71.4317 7.42252 71.5074 7.43982C71.483 7.50687 71.4666 7.57761 71.4331 7.64036C71.2289 8.0224 71.0203 8.40231 70.8144 8.78353C70.5611 9.25252 70.3084 9.72194 70.0561 10.1915C69.9703 10.3512 69.8859 10.5118 69.7941 10.6823Z" fill="#233650"/>
<path d="M16.5016 26.3511C13.8389 26.3517 11.1933 26.3518 8.5478 26.3538C8.37979 26.3539 8.21174 26.3679 8.04376 26.3757C7.92833 26.381 7.84707 26.3594 7.87156 26.2218C7.88573 26.1422 7.88304 26.0595 7.88304 25.9782C7.88349 19.9246 7.88349 13.8709 7.88311 7.81727C7.88311 7.74139 7.88779 7.66378 7.87306 7.58998C7.84396 7.44433 7.92638 7.42077 8.05165 7.42788C8.21376 7.43707 8.37609 7.44902 8.53831 7.44912C11.242 7.45101 13.9457 7.44267 16.6493 7.45883C17.2118 7.46222 17.777 7.5282 18.3273 7.66704C18.582 7.73129 18.8463 7.76201 19.1012 7.82561C19.3441 7.88625 19.5831 7.96334 19.819 8.04516C20.0822 8.13642 20.343 8.23482 20.5992 8.34186C20.8411 8.44289 21.0842 8.54573 21.3116 8.67166C21.734 8.90557 22.1452 9.15685 22.561 9.40102C22.5807 9.41256 22.6027 9.42243 22.6184 9.43774C23.0964 9.90237 23.6027 10.3451 24.0418 10.8399C24.3822 11.2237 24.6481 11.6671 24.9279 12.0949C25.053 12.2861 25.1386 12.5013 25.2288 12.7106C25.3646 13.0257 25.4934 13.3437 25.616 13.6635C25.676 13.8202 25.7261 13.9819 25.7618 14.1449C25.8345 14.4772 25.8973 14.8114 25.9585 15.1457C25.9993 15.3689 26.0507 15.5928 26.0613 15.8179C26.0857 16.3324 26.0899 16.8479 26.0984 17.363C26.1046 17.7377 26.0923 18.1089 25.9762 18.475C25.9247 18.6377 25.9618 18.824 25.9173 18.99C25.8111 19.3867 25.687 19.7796 25.5571 20.1703C25.4721 20.426 25.3849 20.6843 25.2626 20.9254C25.0555 21.334 24.8325 21.7366 24.5931 22.1295C24.2351 22.717 23.7578 23.2226 23.2487 23.6961C22.8017 24.1118 22.3293 24.5061 21.7715 24.7978C21.4796 24.9504 21.2062 25.1368 20.9057 25.2716C20.5174 25.4458 20.115 25.5954 19.7101 25.7337C19.343 25.8591 18.9694 25.9746 18.5896 26.0588C18.1975 26.1459 17.7953 26.195 17.396 26.2514C17.1048 26.2925 16.8113 26.3184 16.5016 26.3511ZM21.3821 15.3299C21.2363 14.8904 21.1243 14.4378 20.9357 14.0149C20.7134 13.5164 20.4144 13.0538 20.0181 12.6462C19.6123 12.2288 19.1743 11.8504 18.6485 11.5777C17.7758 11.1251 16.8398 10.8896 15.8317 10.903C14.7506 10.9173 13.6691 10.906 12.5879 10.9061C12.3268 10.9062 12.3182 10.9152 12.3182 11.1669C12.3183 12.3014 12.3183 13.4359 12.3183 14.5704C12.3183 17.2466 12.3182 19.9227 12.3183 22.5988C12.3183 22.8372 12.3402 22.8632 12.5539 22.8651C13.7972 22.8758 15.0406 22.8988 16.2837 22.8907C17.0792 22.8854 17.8343 22.678 18.5371 22.337C19.4861 21.8767 20.1973 21.1826 20.706 20.307C21.2772 19.3237 21.5337 18.2635 21.5563 17.1525C21.5686 16.55 21.5181 15.9496 21.3821 15.3299Z" fill="#233650"/>
<path d="M90.1194 15.3598C89.8169 15.6029 89.4602 15.7361 89.1214 15.8959C88.7864 16.0536 88.4302 16.1578 88.0596 16.2198C87.9965 16.2303 87.941 16.2809 87.882 16.3131C87.9357 16.3519 87.9832 16.411 88.0439 16.4263C88.4169 16.5204 88.7997 16.5861 89.1668 16.6969C89.6058 16.8293 90.0227 17.0117 90.3989 17.2715C90.8996 17.6174 91.3344 18.0247 91.654 18.5195C91.8515 18.8254 91.9932 19.1681 92.1188 19.5076C92.235 19.8218 92.3491 20.1506 92.3707 20.4783C92.4136 21.1191 92.4946 21.7699 92.2734 22.4002C92.1335 22.799 92.0197 23.2136 91.8142 23.5822C91.6247 23.9214 91.3452 24.222 91.0741 24.5146C90.8211 24.7882 90.5214 25.0193 90.17 25.1888C89.843 25.3466 89.5391 25.5497 89.2031 25.6867C88.8775 25.8197 88.5258 25.8991 88.1828 25.9924C87.8782 26.0752 87.5739 26.1745 87.2619 26.2138C86.66 26.2897 86.0532 26.372 85.4478 26.3751C82.3541 26.391 79.2601 26.3825 76.1664 26.3825C75.8594 26.3825 75.8594 26.3824 75.8594 26.0923C75.8594 19.9616 75.8594 13.8308 75.8594 7.70011C75.8594 7.42055 75.8597 7.42035 76.1602 7.42035C78.9747 7.42032 81.7896 7.41485 84.6041 7.4257C85.0772 7.42752 85.5497 7.50204 86.0229 7.53915C86.2423 7.55639 86.4664 7.54609 86.6824 7.58082C87.0439 7.63902 87.4012 7.72116 87.7592 7.79734C87.9832 7.84494 88.2121 7.88293 88.4267 7.95641C88.664 8.03763 88.8992 8.13623 89.1138 8.25962C89.5314 8.49959 89.9652 8.72897 90.3336 9.02571C90.6393 9.27141 90.8804 9.59499 91.1135 9.90795C91.2793 10.131 91.4136 10.3843 91.5082 10.6414C91.6066 10.9092 91.6425 11.1973 91.7011 11.4774C91.713 11.5351 91.6886 11.601 91.7067 11.6556C91.8344 12.0392 91.7339 12.4233 91.6917 12.8014C91.661 13.0749 91.541 13.3402 91.4548 13.6076C91.4167 13.7261 91.3759 13.8462 91.3162 13.9559C91.0702 14.4061 90.7743 14.8237 90.3689 15.1654C90.2918 15.2305 90.2087 15.2899 90.1194 15.3598ZM80.2926 20.2737C80.2926 21.1151 80.2923 21.9565 80.2923 22.7979C80.2923 23.0123 80.3087 23.0271 80.5425 23.0272C81.7808 23.0273 83.0192 23.0206 84.2572 23.0297C84.8857 23.0344 85.5033 22.9724 86.0878 22.7616C86.4018 22.6483 86.7249 22.5004 86.9716 22.293C87.5732 21.7876 87.8101 21.1325 87.7246 20.3749C87.6294 19.5265 87.1318 18.9521 86.3233 18.614C85.8069 18.3981 85.25 18.304 84.6788 18.3044C83.2952 18.3055 81.9117 18.3038 80.5282 18.3037C80.3136 18.3037 80.2926 18.3241 80.2923 18.5312C80.2919 19.1012 80.2926 19.6711 80.2926 20.2737ZM86.2615 14.6723C86.5944 14.4451 86.8436 14.1469 86.9765 13.7903C87.2225 13.1303 87.2155 12.4711 86.8512 11.8384C86.6562 11.4996 86.3795 11.2256 86.0176 11.053C85.563 10.8362 85.0692 10.742 84.5542 10.7435C83.2171 10.7473 81.8799 10.7444 80.5428 10.7444C80.3111 10.7444 80.2923 10.7613 80.2923 10.9747C80.2919 12.2939 80.2919 13.6132 80.2926 14.9324C80.2926 15.1787 80.3184 15.202 80.5826 15.2021C81.6639 15.2023 82.7457 15.2075 83.8267 15.1992C84.1976 15.1963 84.5692 15.1714 84.938 15.1345C85.4098 15.0875 85.8662 14.9852 86.2615 14.6723Z" fill="#233650"/>
<path d="M42.486 15.6703C42.5565 15.448 42.6085 15.2323 42.6814 15.0229C42.747 14.834 42.8374 14.6527 42.9128 14.4667C42.933 14.4174 42.9358 14.3622 42.9529 14.3114C42.9777 14.2363 43.008 14.1627 43.036 14.0884C43.0545 14.0386 43.0719 13.9885 43.0911 13.9389C43.1246 13.851 43.1595 13.7634 43.1926 13.6754C43.2062 13.6402 43.2164 13.6041 43.2296 13.5689C43.2656 13.4708 43.3043 13.3734 43.3381 13.2746C43.3538 13.2291 43.3556 13.1795 43.3716 13.1342C43.3992 13.0552 43.4334 12.9784 43.4634 12.9001C43.4805 12.8553 43.4931 12.8091 43.5098 12.7642C43.5426 12.6761 43.5768 12.5885 43.6114 12.5009C43.6152 12.491 43.6267 12.4833 43.6295 12.4734C43.6839 12.2806 43.73 12.0853 43.7942 11.8953C43.8602 11.6995 43.9435 11.5089 44.0203 11.3162C44.0262 11.3014 44.0433 11.2898 44.0475 11.2749C44.1034 11.0759 44.1501 10.8741 44.2157 10.6779C44.2796 10.4866 44.3626 10.3008 44.438 10.1129C44.446 10.093 44.4659 10.0766 44.4718 10.0565C44.5277 9.85683 44.5723 9.65387 44.639 9.45753C44.7046 9.26558 44.7932 9.08055 44.8696 8.8918C44.8857 8.85198 44.892 8.80874 44.9063 8.76814C44.9377 8.67835 44.9729 8.58962 45.0036 8.49963C45.0211 8.44913 45.0305 8.39621 45.0476 8.34571C45.0734 8.27057 45.102 8.19632 45.1313 8.12222C45.147 8.08251 45.1676 8.04455 45.183 8.00476C45.2409 7.85593 45.2814 7.69868 45.3613 7.56128C45.3965 7.50107 45.5106 7.44822 45.5891 7.44779C46.9088 7.44092 48.2288 7.4417 49.5485 7.44411C49.7565 7.44447 49.8043 7.54857 49.7097 7.71843C49.6372 7.84902 49.5967 7.99522 49.5405 8.13395C49.454 8.3474 49.3639 8.55961 49.2795 8.77388C49.2226 8.91861 49.1776 9.06745 49.12 9.21179C49.037 9.4184 48.9428 9.62109 48.8618 9.82835C48.8001 9.987 48.7575 10.1523 48.695 10.3106C48.621 10.4973 48.5338 10.6793 48.4546 10.8641C48.4379 10.9031 48.4333 10.9466 48.418 10.9862C48.388 11.0636 48.3548 11.14 48.3217 11.2163C48.3108 11.2408 48.2941 11.2629 48.284 11.2875C48.196 11.5034 48.1039 11.718 48.0237 11.9364C47.9602 12.1103 47.9158 12.2903 47.8544 12.4651C47.8017 12.6163 47.7414 12.7657 47.6765 12.9129C47.6046 13.0771 47.5205 13.2367 47.4479 13.4007C47.4008 13.507 47.3614 13.6166 47.3237 13.7263C47.2661 13.8927 47.2204 14.063 47.1562 14.227C47.0878 14.4021 47.0034 14.5718 46.9263 14.7441C46.9109 14.7784 46.899 14.8139 46.8847 14.8486C46.802 15.0499 46.7179 15.2509 46.6366 15.4527C46.5871 15.5757 46.5393 15.6994 46.4946 15.824C46.435 15.9895 46.3858 16.1585 46.3202 16.3219C46.2479 16.5027 46.1624 16.679 46.0822 16.8571C46.0756 16.8718 46.0616 16.8841 46.0571 16.899C46.0026 17.0758 45.9608 17.2568 45.8927 17.4287C45.8268 17.5954 45.7322 17.7519 45.6544 17.9147C45.6362 17.9527 45.6404 17.9995 45.6261 18.0396C45.5996 18.1133 45.5675 18.1852 45.5368 18.2576C45.5221 18.2919 45.504 18.3251 45.49 18.3597C45.4063 18.5676 45.3191 18.7744 45.2412 18.9842C45.1767 19.158 45.1254 19.336 45.064 19.5109C45.0113 19.6618 44.9534 19.8113 44.8958 19.9606C44.8124 20.1758 44.7311 20.3918 44.6414 20.6048C44.5699 20.7751 44.4816 20.9394 44.4118 21.1103C44.3438 21.2767 44.2907 21.4484 44.229 21.6171C44.1704 21.7774 44.1107 21.9374 44.0486 22.0966C43.9697 22.2995 43.8891 22.5019 43.8068 22.7036C43.7457 22.8533 43.6808 23.0016 43.6086 23.1715C43.3793 23.0117 43.1204 22.8608 42.9006 22.6704C42.6019 22.4116 42.3046 22.1427 42.06 21.8406C41.8482 21.579 41.7027 21.2686 41.5425 20.973C41.4462 20.7959 41.3778 20.6058 41.2969 20.4215C41.2948 20.4165 41.2913 20.4109 41.292 20.406C41.3335 20.097 41.1583 19.8185 41.1486 19.5187C41.1454 19.424 41.2026 19.3278 41.2316 19.2322C41.2473 19.1811 41.2599 19.129 41.278 19.0787C41.3049 19.0041 41.3345 18.9303 41.3656 18.8571C41.3736 18.8374 41.3967 18.8225 41.4022 18.8028C41.457 18.6082 41.501 18.4106 41.5652 18.2188C41.6308 18.022 41.7163 17.8311 41.791 17.6368C41.8527 17.4767 41.912 17.3158 41.9703 17.1547C42.0593 16.9097 42.1521 16.6657 42.2331 16.4185C42.2959 16.2268 42.3409 16.0301 42.3992 15.837C42.4156 15.7821 42.4501 15.732 42.486 15.6703Z" fill="#98C0D9"/>
<path d="M9.83667 40.2666L8.22245 35.2462H9.33178L10.5122 39.1075H10.0785L11.2305 35.2462H12.1051L13.2571 39.1075H12.8305L14.0038 35.2462H15.106L13.4918 40.2666H12.6171L11.458 36.4053H11.8705L10.7113 40.2666H9.83667ZM16.0657 40.2666V35.2462H17.1821V40.2666H16.0657ZM19.1732 40.2666V35.2462H20.2968V40.2666H19.1732ZM16.7341 38.1688V37.2017H19.543V38.1688H16.7341ZM24.0121 40.3519C23.6329 40.3519 23.282 40.2856 22.9597 40.1528C22.642 40.0201 22.3623 39.8352 22.1206 39.5982C21.8788 39.3611 21.6915 39.0862 21.5588 38.7733C21.426 38.4556 21.3597 38.1143 21.3597 37.7493C21.3597 37.3795 21.426 37.0382 21.5588 36.7253C21.6915 36.4124 21.8764 36.1398 22.1135 35.9075C22.3505 35.6705 22.6278 35.4879 22.9455 35.3599C23.2678 35.2272 23.6186 35.1608 23.9979 35.1608C24.3724 35.1608 24.7185 35.2272 25.0361 35.3599C25.3585 35.4879 25.6382 35.6705 25.8752 35.9075C26.117 36.1398 26.3043 36.4147 26.437 36.7324C26.5697 37.0453 26.6361 37.3866 26.6361 37.7564C26.6361 38.1214 26.5697 38.4627 26.437 38.7804C26.3043 39.0933 26.1194 39.3682 25.8823 39.6053C25.6453 39.8376 25.3656 40.0201 25.0432 40.1528C24.7256 40.2856 24.3819 40.3519 24.0121 40.3519ZM23.9979 39.335C24.2966 39.335 24.5573 39.2687 24.7801 39.1359C25.0077 39.0032 25.1831 38.8183 25.3063 38.5813C25.4296 38.3395 25.4912 38.0622 25.4912 37.7493C25.4912 37.5122 25.4557 37.2989 25.3846 37.1093C25.3135 36.9149 25.2115 36.749 25.0788 36.6115C24.946 36.4693 24.7872 36.3626 24.6023 36.2915C24.4222 36.2156 24.2207 36.1777 23.9979 36.1777C23.6992 36.1777 23.4361 36.2441 23.2086 36.3768C22.9857 36.5048 22.8127 36.6873 22.6895 36.9244C22.5662 37.1567 22.5046 37.4316 22.5046 37.7493C22.5046 37.9863 22.5401 38.202 22.6112 38.3964C22.6823 38.5907 22.7819 38.759 22.9099 38.9013C23.0426 39.0387 23.2015 39.1454 23.3863 39.2213C23.5712 39.2971 23.7751 39.335 23.9979 39.335ZM27.7004 40.2666V35.2462H28.8168V40.2666H27.7004ZM28.5608 40.2666V39.2853H31.0426V40.2666H28.5608ZM32.0421 40.2666V35.2462H33.1585V40.2666H32.0421ZM32.8954 40.2666V39.2995H35.6474V40.2666H32.8954ZM32.8954 38.1688V37.2373H35.3985V38.1688H32.8954ZM32.8954 36.2062V35.2462H35.6118V36.2062H32.8954ZM38.1552 40.3448C37.7427 40.3448 37.3872 40.2785 37.0885 40.1457C36.7946 40.0082 36.5244 39.802 36.2778 39.527L37.0032 38.8088C37.1644 38.9937 37.3421 39.1383 37.5365 39.2426C37.7356 39.3422 37.9655 39.3919 38.2263 39.3919C38.4633 39.3919 38.6458 39.3493 38.7738 39.2639C38.9066 39.1786 38.9729 39.0601 38.9729 38.9084C38.9729 38.7709 38.9303 38.6595 38.8449 38.5742C38.7596 38.4888 38.6458 38.4153 38.5036 38.3537C38.3661 38.2921 38.2121 38.2328 38.0414 38.1759C37.8755 38.119 37.7095 38.055 37.5436 37.9839C37.3777 37.9081 37.2236 37.8156 37.0814 37.7066C36.9439 37.5928 36.8325 37.453 36.7472 37.287C36.6618 37.1164 36.6192 36.903 36.6192 36.647C36.6192 36.3389 36.6927 36.0734 36.8396 35.8506C36.9913 35.6278 37.1999 35.4595 37.4654 35.3457C37.7309 35.2272 38.0367 35.1679 38.3827 35.1679C38.7335 35.1679 39.0535 35.2296 39.3427 35.3528C39.6367 35.4761 39.8784 35.6444 40.0681 35.8577L39.3427 36.5759C39.191 36.4195 39.0369 36.3033 38.8805 36.2275C38.7288 36.1516 38.5558 36.1137 38.3614 36.1137C38.167 36.1137 38.0129 36.1516 37.8992 36.2275C37.7854 36.2986 37.7285 36.4029 37.7285 36.5404C37.7285 36.6684 37.7712 36.7727 37.8565 36.8533C37.9418 36.9291 38.0532 36.9955 38.1907 37.0524C38.3329 37.1093 38.487 37.1662 38.6529 37.223C38.8236 37.2799 38.9919 37.3463 39.1578 37.4222C39.3238 37.498 39.4755 37.5952 39.6129 37.7137C39.7552 37.8275 39.8689 37.9745 39.9543 38.1546C40.0396 38.33 40.0823 38.5481 40.0823 38.8088C40.0823 39.2876 39.9116 39.6645 39.5703 39.9395C39.2289 40.2097 38.7572 40.3448 38.1552 40.3448ZM40.6263 40.2666L42.6174 35.2462H43.6272L45.5969 40.2666H44.4165L42.9089 36.0995H43.3143L41.7854 40.2666H40.6263ZM41.7569 39.3564V38.4462H44.4947V39.3564H41.7569ZM46.4837 40.2666V35.2462H47.6002V40.2666H46.4837ZM47.3442 40.2666V39.2853H49.8259V40.2666H47.3442ZM50.8254 40.2666V35.2462H51.9418V40.2666H50.8254ZM51.6787 40.2666V39.2995H54.4307V40.2666H51.6787ZM51.6787 38.1688V37.2373H54.1818V38.1688H51.6787ZM51.6787 36.2062V35.2462H54.3952V36.2062H51.6787Z" fill="#98C0D9"/>
</svg>
