<svg width="135" height="43" viewBox="0 0 135 43" fill="none" xmlns="http://www.w3.org/2000/svg">
<mask id="path-1-inside-1_2271_39054" fill="white">
<path d="M0.757812 0.266602H134.758V42.2666H0.757812V0.266602Z"/>
</mask>
<path d="M134.758 0.266602H134.358V42.2666H134.758H135.158V0.266602H134.758ZM0.757812 42.2666H1.15781V0.266602H0.757812H0.357812V42.2666H0.757812Z" fill="black" fill-opacity="0.5" mask="url(#path-1-inside-1_2271_39054)"/>
<path d="M78.9912 15.169C79.4067 15.9259 79.8153 16.6725 80.2288 17.4166C80.5363 17.9699 80.8527 18.5189 81.1605 19.0721C81.3608 19.4322 81.5586 19.7936 81.7446 20.1603C81.7949 20.2592 81.8175 20.3792 81.8179 20.4895C81.8224 22.3734 81.821 24.2573 81.821 26.1411C81.821 26.3919 81.8036 26.4076 81.5332 26.4076C80.2016 26.4076 78.8704 26.4076 77.5389 26.4075C77.2849 26.4075 77.258 26.3833 77.2576 26.1473C77.2576 24.3992 77.2395 22.6508 77.2716 20.9031C77.2789 20.5045 77.1282 20.1927 76.9527 19.8674C76.7004 19.3989 76.4411 18.9337 76.1857 18.4667C75.9114 17.9654 75.6372 17.4642 75.3654 16.962C75.0332 16.3484 74.7055 15.7327 74.3719 15.1198C74.046 14.5215 73.7135 13.9267 73.3876 13.3285C73.0669 12.7394 72.7532 12.1468 72.4325 11.5576C71.9702 10.7087 71.5037 9.86182 71.0406 9.01333C70.7754 8.52693 70.5141 8.03852 70.2485 7.55232C70.1878 7.44174 70.2192 7.38804 70.349 7.38035C70.3895 7.37797 70.4303 7.37882 70.4708 7.37882C71.7908 7.37869 73.1105 7.3809 74.4302 7.37598C74.6151 7.3753 74.7188 7.42913 74.8077 7.59168C75.4299 8.73035 76.0685 9.86113 76.6969 10.9969C77.0022 11.5493 77.2925 12.109 77.5972 12.6618C77.9799 13.3559 78.3704 14.0462 78.757 14.7384C78.8348 14.8775 78.9099 15.0179 78.9912 15.169Z" fill="#233650"/>
<path d="M52.5316 20.6983C52.3257 20.1669 52.123 19.6479 51.921 19.1287C51.7092 18.584 51.4988 18.0387 51.2859 17.4944C51.1404 17.123 50.9914 16.7528 50.8445 16.3819C50.6386 15.8639 50.4316 15.3465 50.2281 14.8278C49.9967 14.238 49.7688 13.647 49.539 13.0566C49.1347 12.0181 48.7326 10.9789 48.3248 9.94164C48.0249 9.17878 47.7183 8.41824 47.4129 7.6573C47.3214 7.42925 47.3558 7.38012 47.621 7.38005C48.9119 7.37983 50.2028 7.37986 51.4939 7.37996C51.735 7.37999 51.7741 7.41528 51.8557 7.62788C52.1167 8.3058 52.3847 8.9814 52.6488 9.65827C52.8596 10.1977 53.0669 10.7383 53.2783 11.2775C53.5275 11.9135 53.7804 12.5482 54.0299 13.1841C54.2913 13.8505 54.5502 14.5177 54.8112 15.1842C55.0265 15.7336 55.2456 16.2818 55.4595 16.8317C55.6675 17.3664 55.8695 17.9031 56.0775 18.4378C56.2237 18.8148 56.3755 19.19 56.5241 19.5662C56.7332 20.0947 56.9425 20.6231 57.1498 21.1522C57.4192 21.8391 57.6868 22.5265 57.9548 23.2139C58.2088 23.8655 58.4611 24.5177 58.7162 25.1689C58.8481 25.5048 58.9821 25.84 59.1188 26.174C59.2033 26.38 59.1862 26.4092 58.9475 26.4093C57.75 26.4101 56.5521 26.4095 55.3542 26.4095C55.2844 26.4095 55.2146 26.4105 55.1448 26.4093C54.7606 26.4026 54.7948 26.4856 54.6221 26.0365C54.4633 25.6236 54.2962 25.2135 54.135 24.8015C53.9773 24.3997 53.8237 23.9966 53.666 23.5949C53.4081 22.9391 53.1475 22.2841 52.8896 21.6283C52.7696 21.3231 52.653 21.0167 52.5316 20.6983Z" fill="#233650"/>
<path d="M87.0129 10.6745C86.8447 10.978 86.6814 11.2702 86.5222 11.5645C86.1803 12.1974 85.8411 12.8317 85.4995 13.4647C84.9981 14.3934 84.496 15.3216 83.9935 16.2496C83.8417 16.5299 83.6861 16.8085 83.5346 17.0889C83.4781 17.1934 83.3755 17.215 83.2834 17.1755C82.9592 17.0362 82.6093 16.9228 82.3287 16.7257C81.7097 16.291 81.352 15.6848 81.1448 14.9883C81.0076 14.528 80.9895 14.059 80.9462 13.5908C80.9393 13.5158 80.9731 13.4299 81.0111 13.36C81.3821 12.6792 81.76 12.0018 82.1316 11.3214C82.4212 10.7907 82.7035 10.2565 82.991 9.72485C83.3752 9.01513 83.7635 8.30757 84.1442 7.59622C84.2297 7.43634 84.3421 7.37473 84.5399 7.376C85.8596 7.38437 87.1796 7.37932 88.4993 7.38228C88.575 7.38248 88.6504 7.4147 88.7261 7.43201C88.7017 7.49906 88.6853 7.5698 88.6518 7.63255C88.4477 8.01458 88.239 8.3945 88.0331 8.77572C87.7798 9.24471 87.5272 9.71413 87.2749 10.1836C87.1891 10.3434 87.1046 10.504 87.0129 10.6745Z" fill="#233650"/>
<path d="M33.7281 26.3452C31.0654 26.3458 28.4199 26.346 25.7744 26.3479C25.6063 26.3481 25.4383 26.3621 25.2703 26.3698C25.1549 26.3752 25.0736 26.3536 25.0981 26.2159C25.1123 26.1363 25.1096 26.0537 25.1096 25.9724C25.1101 19.9187 25.1101 13.8651 25.1097 7.81141C25.1097 7.73553 25.1143 7.65792 25.0996 7.58412C25.0705 7.43847 25.1529 7.41492 25.2782 7.42202C25.4403 7.43121 25.6027 7.44316 25.7649 7.44326C28.4685 7.44515 31.1723 7.43681 33.8759 7.45297C34.4384 7.45636 35.0036 7.52234 35.5539 7.66118C35.8085 7.72543 36.0729 7.75615 36.3278 7.81976C36.5707 7.88039 36.8096 7.95748 37.0456 8.0393C37.3087 8.13056 37.5695 8.22896 37.8257 8.336C38.0676 8.43703 38.3108 8.53987 38.5382 8.6658C38.9605 8.89971 39.3718 9.15099 39.7876 9.39516C39.8072 9.4067 39.8292 9.41657 39.845 9.43188C40.3229 9.89651 40.8293 10.3393 41.2684 10.8341C41.6088 11.2178 41.8746 11.6612 42.1545 12.089C42.2796 12.2802 42.3651 12.4954 42.4553 12.7047C42.5912 13.0199 42.72 13.3378 42.8425 13.6576C42.9026 13.8144 42.9527 13.976 42.9884 14.1391C43.0611 14.4713 43.1239 14.8056 43.185 15.1399C43.2258 15.363 43.2772 15.587 43.2879 15.812C43.3122 16.3266 43.3165 16.842 43.325 17.3572C43.3312 17.7318 43.3188 18.1031 43.2028 18.4691C43.1512 18.6319 43.1883 18.8182 43.1439 18.9841C43.0377 19.3808 42.9135 19.7737 42.7837 20.1644C42.6987 20.4202 42.6114 20.6784 42.4892 20.9196C42.282 21.3281 42.059 21.7308 41.8197 22.1236C41.4617 22.7111 40.9844 23.2168 40.4753 23.6902C40.0283 24.1059 39.5559 24.5003 38.9981 24.7919C38.7061 24.9446 38.4327 25.131 38.1322 25.2658C37.7439 25.4399 37.3415 25.5895 36.9366 25.7278C36.5695 25.8532 36.1959 25.9687 35.8161 26.053C35.424 26.14 35.0218 26.1892 34.6225 26.2455C34.3314 26.2866 34.0378 26.3125 33.7281 26.3452ZM38.6087 15.324C38.4628 14.8846 38.3509 14.4319 38.1623 14.009C37.9399 13.5106 37.6409 13.048 37.2446 12.6403C36.8389 12.223 36.4008 11.8445 35.8751 11.5719C35.0024 11.1192 34.0664 10.8837 33.0582 10.8971C31.9772 10.9115 30.8957 10.9001 29.8145 10.9003C29.5534 10.9004 29.5448 10.9093 29.5448 11.161C29.5448 12.2955 29.5449 13.43 29.5449 14.5645C29.5448 17.2407 29.5447 19.9168 29.5448 22.593C29.5449 22.8313 29.5667 22.8574 29.7804 22.8592C31.0237 22.8699 32.2671 22.8929 33.5103 22.8848C34.3057 22.8796 35.0609 22.6721 35.7637 22.3312C36.7126 21.8708 37.4239 21.1768 37.9325 20.3012C38.5037 19.3178 38.7603 18.2576 38.7829 17.1467C38.7952 16.5441 38.7446 15.9437 38.6087 15.324Z" fill="#233650"/>
<path d="M107.33 15.3519C107.028 15.595 106.671 15.7283 106.332 15.8881C105.997 16.0458 105.641 16.15 105.271 16.212C105.207 16.2225 105.152 16.2731 105.093 16.3052C105.147 16.3441 105.194 16.4032 105.255 16.4185C105.628 16.5126 106.011 16.5783 106.378 16.689C106.817 16.8215 107.234 17.0039 107.61 17.2637C108.111 17.6096 108.545 18.0168 108.865 18.5117C109.062 18.8176 109.204 19.1603 109.33 19.4998C109.446 19.8139 109.56 20.1427 109.582 20.4705C109.625 21.1113 109.706 21.7621 109.484 22.3924C109.344 22.7912 109.231 23.2058 109.025 23.5744C108.836 23.9136 108.556 24.2142 108.285 24.5068C108.032 24.7804 107.732 25.0115 107.381 25.181C107.054 25.3388 106.75 25.5419 106.414 25.6789C106.088 25.8118 105.737 25.8912 105.394 25.9846C105.089 26.0674 104.785 26.1667 104.473 26.206C103.871 26.2818 103.264 26.3642 102.659 26.3673C99.5651 26.3832 96.4711 26.3746 93.3774 26.3746C93.0703 26.3746 93.0703 26.3745 93.0703 26.0845C93.0703 19.9538 93.0703 13.823 93.0703 7.6923C93.0703 7.41274 93.0707 7.41254 93.3711 7.41254C96.1856 7.41251 99.0005 7.40704 101.815 7.41789C102.288 7.41971 102.761 7.49423 103.234 7.53134C103.453 7.54857 103.677 7.53828 103.893 7.57301C104.255 7.6312 104.612 7.71335 104.97 7.78952C105.194 7.83713 105.423 7.87512 105.638 7.94859C105.875 8.02982 106.11 8.12842 106.325 8.25181C106.742 8.49178 107.176 8.72116 107.545 9.01789C107.85 9.2636 108.091 9.58718 108.324 9.90013C108.49 10.1232 108.625 10.3765 108.719 10.6336C108.817 10.9014 108.853 11.1895 108.912 11.4696C108.924 11.5273 108.899 11.5932 108.918 11.6478C109.045 12.0314 108.945 12.4155 108.903 12.7936C108.872 13.0671 108.752 13.3324 108.666 13.5997C108.628 13.7182 108.587 13.8384 108.527 13.9481C108.281 14.3983 107.985 14.8159 107.58 15.1576C107.503 15.2227 107.42 15.2821 107.33 15.3519ZM97.5036 20.2659C97.5036 21.1073 97.5032 21.9487 97.5032 22.7901C97.5032 23.0044 97.5196 23.0193 97.7534 23.0193C98.9918 23.0195 100.23 23.0128 101.468 23.0219C102.097 23.0266 102.714 22.9646 103.299 22.7538C103.613 22.6405 103.936 22.4925 104.183 22.2852C104.784 21.7798 105.021 21.1247 104.936 20.3671C104.84 19.5187 104.343 18.9443 103.534 18.6062C103.018 18.3902 102.461 18.2962 101.89 18.2966C100.506 18.2977 99.1226 18.296 97.7391 18.2959C97.5245 18.2959 97.5036 18.3163 97.5032 18.5234C97.5029 19.0933 97.5036 19.6633 97.5036 20.2659ZM103.472 14.6644C103.805 14.4372 104.055 14.1391 104.187 13.7825C104.433 13.1225 104.426 12.4633 104.062 11.8306C103.867 11.4918 103.59 11.2178 103.229 11.0452C102.774 10.8284 102.28 10.7342 101.765 10.7357C100.428 10.7395 99.0909 10.7366 97.7537 10.7366C97.5221 10.7366 97.5032 10.7535 97.5032 10.9669C97.5029 12.2861 97.5029 13.6053 97.5036 14.9246C97.5036 15.1709 97.5294 15.1942 97.7935 15.1942C98.8749 15.1945 99.9566 15.1997 101.038 15.1914C101.409 15.1885 101.78 15.1635 102.149 15.1267C102.621 15.0796 103.077 14.9774 103.472 14.6644Z" fill="#233650"/>
<path d="M59.7048 15.6644C59.7753 15.4421 59.8273 15.2264 59.9002 15.017C59.9658 14.8282 60.0562 14.6468 60.1315 14.4608C60.1518 14.4115 60.1546 14.3563 60.1717 14.3055C60.1964 14.2304 60.2268 14.1568 60.2547 14.0825C60.2732 14.0328 60.2907 13.9827 60.3098 13.9331C60.3433 13.8451 60.3782 13.7575 60.4114 13.6695C60.425 13.6344 60.4351 13.5983 60.4484 13.563C60.4843 13.4649 60.523 13.3676 60.5569 13.2687C60.5726 13.2232 60.5743 13.1737 60.5904 13.1283C60.618 13.0493 60.6521 12.9725 60.6822 12.8942C60.6993 12.8495 60.7118 12.8032 60.7286 12.7583C60.7614 12.6703 60.7956 12.5826 60.8301 12.495C60.8339 12.4851 60.8455 12.4775 60.8483 12.4675C60.9027 12.2747 60.9488 12.0794 61.013 11.8895C61.0789 11.6937 61.1623 11.503 61.2391 11.3104C61.245 11.2955 61.2621 11.284 61.2663 11.269C61.3221 11.07 61.3689 10.8683 61.4345 10.6721C61.4983 10.4808 61.5814 10.2949 61.6567 10.1071C61.6648 10.0871 61.6847 10.0708 61.6906 10.0506C61.7464 9.85097 61.7911 9.64801 61.8577 9.45167C61.9233 9.25972 62.012 9.07469 62.0884 8.88594C62.1044 8.84612 62.1107 8.80288 62.125 8.76228C62.1564 8.67249 62.1917 8.58376 62.2224 8.49377C62.2398 8.44327 62.2492 8.39035 62.2663 8.33985C62.2922 8.26471 62.3208 8.19046 62.3501 8.11636C62.3658 8.07665 62.3864 8.03869 62.4017 7.9989C62.4596 7.85007 62.5001 7.69282 62.58 7.55542C62.6153 7.49521 62.7294 7.44236 62.8079 7.44193C64.1276 7.43506 65.4476 7.43584 66.7673 7.43825C66.9752 7.43861 67.023 7.54271 66.9285 7.71257C66.8559 7.84316 66.8154 7.98936 66.7592 8.12809C66.6727 8.34154 66.5827 8.55375 66.4982 8.76802C66.4414 8.91275 66.3964 9.06159 66.3388 9.20593C66.2557 9.41254 66.1615 9.61523 66.0806 9.82249C66.0188 9.98114 65.9762 10.1464 65.9138 10.3047C65.8398 10.4914 65.7526 10.6734 65.6734 10.8583C65.6566 10.8973 65.6521 10.9407 65.6367 10.9804C65.6067 11.0578 65.5736 11.1341 65.5404 11.2105C65.5296 11.2349 65.5128 11.257 65.5027 11.2816C65.4148 11.4976 65.3227 11.7121 65.2424 11.9305C65.1789 12.1044 65.1346 12.2844 65.0732 12.4592C65.0205 12.6105 64.9601 12.7598 64.8952 12.907C64.8233 13.0712 64.7393 13.2309 64.6667 13.3948C64.6196 13.5011 64.5801 13.6108 64.5424 13.7204C64.4849 13.8868 64.4392 14.0571 64.375 14.2211C64.3066 14.3963 64.2221 14.566 64.145 14.7383C64.1297 14.7725 64.1178 14.808 64.1035 14.8427C64.0208 15.0441 63.9367 15.245 63.8554 15.4469C63.8058 15.5698 63.758 15.6935 63.7134 15.8181C63.6537 15.9837 63.6045 16.1526 63.5389 16.316C63.4667 16.4969 63.3812 16.6732 63.3009 16.8513C63.2943 16.866 63.2803 16.8782 63.2758 16.8932C63.2214 17.0699 63.1795 17.2509 63.1115 17.4229C63.0455 17.5895 62.9509 17.7461 62.8731 17.9089C62.855 17.9468 62.8592 17.9937 62.8449 18.0338C62.8184 18.1075 62.7863 18.1794 62.7555 18.2517C62.7409 18.2861 62.7227 18.3193 62.7088 18.3539C62.625 18.5617 62.5378 18.7686 62.46 18.9784C62.3954 19.1521 62.3441 19.3302 62.2827 19.505C62.23 19.6559 62.1721 19.8054 62.1145 19.9548C62.0312 20.17 61.9498 20.3859 61.8602 20.5989C61.7886 20.7693 61.7004 20.9336 61.6306 21.1045C61.5625 21.2708 61.5095 21.4425 61.4477 21.6112C61.3891 21.7716 61.3294 21.9315 61.2673 22.0907C61.1885 22.2936 61.1079 22.4961 61.0255 22.6978C60.9645 22.8475 60.8995 22.9958 60.8273 23.1656C60.5981 23.0058 60.3392 22.8549 60.1193 22.6645C59.8206 22.4058 59.5233 22.1368 59.2787 21.8348C59.0669 21.5731 58.9214 21.2627 58.7613 20.9671C58.665 20.79 58.5966 20.5999 58.5156 20.4156C58.5135 20.4106 58.51 20.405 58.5107 20.4001C58.5522 20.0911 58.3771 19.8127 58.3673 19.5128C58.3642 19.4182 58.4214 19.3219 58.4504 19.2263C58.4661 19.1752 58.4786 19.1232 58.4968 19.0729C58.5236 18.9983 58.5533 18.9245 58.5843 18.8512C58.5924 18.8316 58.6154 18.8166 58.621 18.7969C58.6758 18.6023 58.7197 18.4047 58.7839 18.2129C58.8495 18.0161 58.935 17.8252 59.0097 17.6309C59.0715 17.4708 59.1308 17.3099 59.1891 17.1488C59.278 16.9039 59.3709 16.6599 59.4518 16.4126C59.5146 16.2209 59.5596 16.0242 59.6179 15.8311C59.6343 15.7762 59.6688 15.7261 59.7048 15.6644Z" fill="#98C0D9"/>
<path d="M26.003 40.5195V39.5382H27.2474C27.5508 39.5382 27.8163 39.4789 28.0438 39.3604C28.2714 39.2372 28.4468 39.0594 28.5701 38.8271C28.6933 38.5948 28.755 38.3198 28.755 38.0022C28.755 37.6846 28.691 37.412 28.563 37.1844C28.4397 36.9569 28.2643 36.7815 28.0367 36.6582C27.8139 36.5349 27.5508 36.4733 27.2474 36.4733H25.9674V35.4991H27.2616C27.6409 35.4991 27.9893 35.5607 28.307 35.684C28.6293 35.8025 28.909 35.9755 29.1461 36.2031C29.3878 36.4259 29.5727 36.6914 29.7007 36.9995C29.8335 37.3029 29.8998 37.6395 29.8998 38.0093C29.8998 38.3743 29.8335 38.7109 29.7007 39.0191C29.5727 39.3272 29.3902 39.5927 29.1532 39.8155C28.9161 40.0383 28.6364 40.2114 28.3141 40.3346C27.9964 40.4579 27.6504 40.5195 27.2758 40.5195H26.003ZM25.2492 40.5195V35.4991H26.3656V40.5195H25.2492ZM30.9658 40.5195V35.4991H32.0823V40.5195H30.9658ZM35.7727 40.5978C35.4077 40.5978 35.064 40.5314 34.7416 40.3986C34.424 40.2659 34.1467 40.0834 33.9096 39.8511C33.6726 39.614 33.4853 39.3391 33.3478 39.0262C33.2151 38.7086 33.1487 38.3672 33.1487 38.0022C33.1487 37.6372 33.2175 37.2982 33.355 36.9853C33.4924 36.6724 33.6821 36.3998 33.9238 36.1675C34.1704 35.9305 34.4572 35.748 34.7843 35.62C35.1114 35.4872 35.4622 35.4209 35.8367 35.4209C36.2681 35.4209 36.6593 35.4991 37.0101 35.6555C37.3656 35.812 37.6596 36.0277 37.8918 36.3026L37.131 37.0635C36.9698 36.8549 36.7801 36.6985 36.5621 36.5942C36.344 36.4899 36.0975 36.4378 35.8225 36.4378C35.5286 36.4378 35.2655 36.5041 35.0332 36.6369C34.8009 36.7649 34.6184 36.9474 34.4856 37.1844C34.3576 37.4167 34.2936 37.6893 34.2936 38.0022C34.2936 38.3151 34.3576 38.59 34.4856 38.8271C34.6136 39.0641 34.789 39.249 35.0118 39.3818C35.2347 39.5145 35.4907 39.5809 35.7798 39.5809C36.0738 39.5809 36.3227 39.5263 36.5265 39.4173C36.7351 39.3035 36.8939 39.1423 37.003 38.9338C37.1167 38.7204 37.1736 38.462 37.1736 38.1586L37.9132 38.6564L35.6732 38.6209V37.6751H38.3114V37.8386C38.3114 38.4407 38.2024 38.948 37.9843 39.3604C37.771 39.7681 37.4723 40.0763 37.0883 40.2849C36.709 40.4935 36.2705 40.5978 35.7727 40.5978ZM39.3436 40.5195V35.4991H40.4601V40.5195H39.3436ZM44.7438 40.5195L43.1296 35.4991H44.2389L45.4193 39.3604H44.9856L46.1376 35.4991H47.0122L48.1642 39.3604H47.7376L48.9109 35.4991H50.0131L48.3989 40.5195H47.5242L46.3651 36.6582H46.7776L45.6185 40.5195H44.7438ZM50.0403 40.5195L52.0315 35.4991H53.0412L55.011 40.5195H53.8306L52.323 36.3524H52.7283L51.1995 40.5195H50.0403ZM51.171 39.6093V38.6991H53.9088V39.6093H51.171ZM56.7511 38.4502V37.6253H57.8107C58.0335 37.6253 58.2042 37.5684 58.3227 37.4546C58.4459 37.3409 58.5076 37.1868 58.5076 36.9924C58.5076 36.8123 58.4483 36.6629 58.3298 36.5444C58.2113 36.4259 58.0406 36.3666 57.8178 36.3666H56.7511V35.4991H57.9458C58.2776 35.4991 58.5692 35.5631 58.8205 35.6911C59.0717 35.8143 59.2685 35.9874 59.4107 36.2102C59.5529 36.433 59.624 36.689 59.624 36.9782C59.624 37.2721 59.5529 37.5305 59.4107 37.7533C59.2685 37.9714 59.0693 38.142 58.8133 38.2653C58.5573 38.3886 58.2563 38.4502 57.9102 38.4502H56.7511ZM55.8978 40.5195V35.4991H57.0142V40.5195H55.8978ZM58.6285 40.5195L57.064 38.3578L58.088 38.0804L59.9511 40.5195H58.6285ZM60.795 40.5195V35.4991H61.9115V40.5195H60.795ZM61.6483 40.5195V39.5524H64.4003V40.5195H61.6483ZM61.6483 38.4218V37.4902H64.1515V38.4218H61.6483ZM61.6483 36.4591V35.4991H64.3648V36.4591H61.6483ZM65.5256 40.5195V35.4991H66.642V40.5195H65.5256ZM68.6331 40.5195V35.4991H69.7567V40.5195H68.6331ZM66.194 38.4218V37.4546H69.0029V38.4218H66.194ZM73.472 40.6049C73.0928 40.6049 72.7419 40.5385 72.4196 40.4058C72.1019 40.273 71.8222 40.0881 71.5805 39.8511C71.3387 39.614 71.1514 39.3391 71.0187 39.0262C70.8859 38.7086 70.8196 38.3672 70.8196 38.0022C70.8196 37.6324 70.8859 37.2911 71.0187 36.9782C71.1514 36.6653 71.3363 36.3927 71.5733 36.1604C71.8104 35.9234 72.0877 35.7409 72.4053 35.6129C72.7277 35.4801 73.0785 35.4138 73.4578 35.4138C73.8323 35.4138 74.1784 35.4801 74.496 35.6129C74.8184 35.7409 75.0981 35.9234 75.3351 36.1604C75.5769 36.3927 75.7642 36.6677 75.8969 36.9853C76.0296 37.2982 76.096 37.6395 76.096 38.0093C76.096 38.3743 76.0296 38.7157 75.8969 39.0333C75.7642 39.3462 75.5793 39.6212 75.3422 39.8582C75.1052 40.0905 74.8255 40.273 74.5031 40.4058C74.1855 40.5385 73.8418 40.6049 73.472 40.6049ZM73.4578 39.588C73.7565 39.588 74.0172 39.5216 74.24 39.3889C74.4676 39.2561 74.643 39.0712 74.7662 38.8342C74.8895 38.5924 74.9511 38.3151 74.9511 38.0022C74.9511 37.7652 74.9156 37.5518 74.8445 37.3622C74.7733 37.1678 74.6714 37.0019 74.5387 36.8644C74.4059 36.7222 74.2471 36.6155 74.0622 36.5444C73.8821 36.4686 73.6806 36.4306 73.4578 36.4306C73.1591 36.4306 72.896 36.497 72.6685 36.6298C72.4456 36.7578 72.2726 36.9403 72.1493 37.1773C72.0261 37.4096 71.9645 37.6846 71.9645 38.0022C71.9645 38.2392 72 38.4549 72.0711 38.6493C72.1422 38.8437 72.2418 39.012 72.3698 39.1542C72.5025 39.2917 72.6613 39.3983 72.8462 39.4742C73.0311 39.55 73.235 39.588 73.4578 39.588ZM79.1798 40.5978C78.7674 40.5978 78.4024 40.51 78.0847 40.3346C77.7718 40.1592 77.5253 39.9175 77.3452 39.6093C77.1698 39.2964 77.0821 38.9409 77.0821 38.5426V35.4991H78.2056V38.6066C78.2056 38.8058 78.2483 38.9788 78.3336 39.1258C78.419 39.2727 78.5351 39.3865 78.6821 39.4671C78.8338 39.5429 78.9997 39.5809 79.1798 39.5809C79.3695 39.5809 79.5354 39.5429 79.6776 39.4671C79.8198 39.3865 79.9313 39.2751 80.0118 39.1329C80.0972 38.9859 80.1398 38.8129 80.1398 38.6138V35.4991H81.2634V38.5498C81.2634 38.948 81.1757 39.3012 81.0003 39.6093C80.8249 39.9175 80.5807 40.1592 80.2678 40.3346C79.955 40.51 79.5923 40.5978 79.1798 40.5978ZM83.9609 40.5978C83.5485 40.5978 83.1929 40.5314 82.8942 40.3986C82.6003 40.2612 82.3301 40.0549 82.0836 39.78L82.8089 39.0618C82.9701 39.2466 83.1479 39.3912 83.3422 39.4955C83.5413 39.5951 83.7713 39.6449 84.032 39.6449C84.269 39.6449 84.4516 39.6022 84.5796 39.5169C84.7123 39.4315 84.7787 39.313 84.7787 39.1613C84.7787 39.0238 84.736 38.9124 84.6507 38.8271C84.5653 38.7418 84.4516 38.6683 84.3093 38.6066C84.1719 38.545 84.0178 38.4858 83.8471 38.4289C83.6812 38.372 83.5153 38.308 83.3493 38.2369C83.1834 38.161 83.0293 38.0686 82.8871 37.9595C82.7496 37.8458 82.6382 37.7059 82.5529 37.54C82.4676 37.3693 82.4249 37.156 82.4249 36.9C82.4249 36.5918 82.4984 36.3263 82.6453 36.1035C82.797 35.8807 83.0056 35.7124 83.2711 35.5986C83.5366 35.4801 83.8424 35.4209 84.1885 35.4209C84.5393 35.4209 84.8593 35.4825 85.1485 35.6058C85.4424 35.729 85.6842 35.8973 85.8738 36.1106L85.1485 36.8289C84.9968 36.6724 84.8427 36.5563 84.6862 36.4804C84.5345 36.4046 84.3615 36.3666 84.1671 36.3666C83.9728 36.3666 83.8187 36.4046 83.7049 36.4804C83.5911 36.5515 83.5342 36.6558 83.5342 36.7933C83.5342 36.9213 83.5769 37.0256 83.6622 37.1062C83.7476 37.182 83.859 37.2484 83.9965 37.3053C84.1387 37.3622 84.2928 37.4191 84.4587 37.476C84.6293 37.5329 84.7976 37.5992 84.9636 37.6751C85.1295 37.7509 85.2812 37.8481 85.4187 37.9666C85.5609 38.0804 85.6747 38.2274 85.76 38.4075C85.8453 38.5829 85.888 38.801 85.888 39.0618C85.888 39.5406 85.7173 39.9175 85.376 40.1924C85.0347 40.4626 84.563 40.5978 83.9609 40.5978ZM86.9547 40.5195V35.4991H88.0712V40.5195H86.9547ZM87.8081 40.5195V39.5524H90.5601V40.5195H87.8081ZM87.8081 38.4218V37.4902H90.3112V38.4218H87.8081ZM87.8081 36.4591V35.4991H90.5245V36.4591H87.8081Z" fill="#98C0D9"/>
</svg>
