<svg width="170" height="44" viewBox="0 0 170 44" fill="none" xmlns="http://www.w3.org/2000/svg">
<rect x="0.890625" y="0.347656" width="168.889" height="43.5556" rx="3.55556" fill="#233650"/>
<g clip-path="url(#clip0_2271_39013)">
<path d="M43.4688 17.6595C40.1645 15.8113 34.8609 12.8436 26.6347 8.23754C26.0801 7.87126 25.442 7.82326 24.8906 8.00987L39.0045 22.1238L43.4688 17.6595Z" fill="#32BBFF"/>
<path d="M24.8797 8.00879C24.7764 8.04379 24.6758 8.08601 24.5797 8.13701C23.9708 8.46635 23.5234 9.10007 23.5234 9.90157V34.3438C23.5234 35.1453 23.9708 35.7791 24.5797 36.1083C24.6757 36.1593 24.7762 36.2017 24.8794 36.2369L38.9936 22.1227L24.8797 8.00879Z" fill="#32BBFF"/>
<path d="M39.0049 22.1201L24.8906 36.2343C25.4421 36.4223 26.0802 36.378 26.635 36.0064C34.6127 31.5391 39.8565 28.6066 43.1991 26.7427C43.2921 26.6904 43.3833 26.6393 43.4734 26.5887L39.0049 22.1201Z" fill="#32BBFF"/>
<path d="M23.5234 22.124V34.3452C23.5234 35.1467 23.9708 35.7804 24.5797 36.1097C24.6757 36.1606 24.7762 36.203 24.8794 36.2382L38.9936 22.124H23.5234Z" fill="#2C9FD9"/>
<path d="M26.6301 8.2382C25.9714 7.80332 25.1948 7.8157 24.5859 8.13882L38.7857 22.3386L43.4641 17.6602C40.1599 15.812 34.8563 12.8443 26.6301 8.2382Z" fill="#29CC5E"/>
<path d="M38.7858 21.9092L24.5859 36.1089C25.1948 36.432 25.9714 36.4507 26.6301 36.0095C34.6077 31.5423 39.8515 28.6097 43.1941 26.7459C43.2871 26.6936 43.3783 26.6425 43.4684 26.5919L38.7858 21.9092Z" fill="#D93F21"/>
<path d="M49.3563 22.1228C49.3563 21.4456 49.0146 20.7622 48.3373 20.3832C48.3373 20.3832 47.0707 19.6764 43.1883 17.5049L38.5703 22.1228L43.1928 26.7453C47.0325 24.5894 48.3372 23.8625 48.3372 23.8625C49.0146 23.4835 49.3563 22.8001 49.3563 22.1228Z" fill="#FFD500"/>
<path d="M48.3373 23.8637C49.0146 23.4847 49.3563 22.8012 49.3563 22.124H38.5703L43.1928 26.7465C47.0326 24.5906 48.3373 23.8637 48.3373 23.8637Z" fill="#FFAA00"/>
</g>
<path d="M65.7732 16.539C65.3406 16.539 64.9377 16.459 64.5643 16.299C64.191 16.139 63.8651 15.9168 63.5866 15.6323C63.308 15.3479 63.0917 15.016 62.9377 14.6368C62.7836 14.2516 62.7066 13.8368 62.7066 13.3923C62.7066 12.9479 62.7836 12.536 62.9377 12.1568C63.0977 11.7775 63.3169 11.4457 63.5955 11.1612C63.874 10.8708 64.2029 10.6457 64.5821 10.4857C64.9614 10.3257 65.3732 10.2457 65.8177 10.2457C66.3095 10.2457 66.7599 10.3434 67.1688 10.539C67.5836 10.7345 67.9243 11.0101 68.191 11.3657L67.7377 11.819C67.5243 11.5168 67.2517 11.2857 66.9199 11.1257C66.588 10.9597 66.2206 10.8768 65.8177 10.8768C65.3377 10.8768 64.914 10.9864 64.5466 11.2057C64.1792 11.419 63.8917 11.7153 63.6843 12.0945C63.4829 12.4738 63.3821 12.9094 63.3821 13.4012C63.3821 13.8871 63.4829 14.3197 63.6843 14.699C63.8917 15.0782 64.1732 15.3775 64.5288 15.5968C64.8903 15.8101 65.2992 15.9168 65.7555 15.9168C66.2117 15.9168 66.6058 15.8249 66.9377 15.6412C67.2755 15.4575 67.5332 15.1908 67.711 14.8412C67.8947 14.4916 67.9895 14.0708 67.9955 13.579L68.3688 13.8545H65.6932V13.259H68.671V13.3568C68.671 14.0442 68.5466 14.6249 68.2977 15.099C68.0547 15.5731 67.7169 15.9316 67.2843 16.1745C66.8517 16.4175 66.348 16.539 65.7732 16.539ZM69.8838 16.459V10.3434H70.5327V16.459H69.8838ZM70.3105 16.459V15.8634H73.9105V16.459H70.3105ZM70.3105 13.6145V13.0368H73.626V13.6145H70.3105ZM70.3105 10.939V10.3434H73.8571V10.939H70.3105ZM76.5642 16.459V10.5123H77.222V16.459H76.5642ZM74.4131 10.939V10.3434H79.3731V10.939H74.4131ZM82.2536 16.459V10.3434H82.9025V16.459H82.2536ZM86.1649 16.459V10.5123H86.8227V16.459H86.1649ZM84.0138 10.939V10.3434H88.9738V10.939H84.0138ZM94.6098 16.5479C94.1772 16.5479 93.7743 16.4679 93.4009 16.3079C93.0335 16.1419 92.7106 15.9168 92.432 15.6323C92.1535 15.3419 91.9343 15.0071 91.7743 14.6279C91.6202 14.2427 91.5432 13.8308 91.5432 13.3923C91.5432 12.9479 91.6202 12.536 91.7743 12.1568C91.9283 11.7775 92.1446 11.4457 92.4232 11.1612C92.7017 10.8768 93.0246 10.6545 93.392 10.4945C93.7595 10.3345 94.1595 10.2545 94.592 10.2545C95.0246 10.2545 95.4246 10.3345 95.792 10.4945C96.1654 10.6545 96.4913 10.8768 96.7698 11.1612C97.0483 11.4457 97.2646 11.7805 97.4187 12.1657C97.5728 12.5449 97.6498 12.9568 97.6498 13.4012C97.6498 13.8397 97.5728 14.2516 97.4187 14.6368C97.2646 15.016 97.0483 15.3479 96.7698 15.6323C96.4972 15.9168 96.1772 16.1419 95.8098 16.3079C95.4424 16.4679 95.0424 16.5479 94.6098 16.5479ZM94.592 15.9168C95.0543 15.9168 95.4632 15.8071 95.8187 15.5879C96.1802 15.3686 96.4617 15.0694 96.6632 14.6901C96.8706 14.3108 96.9743 13.8782 96.9743 13.3923C96.9743 13.0308 96.915 12.699 96.7965 12.3968C96.678 12.0886 96.512 11.8219 96.2987 11.5968C96.0854 11.3657 95.8335 11.1879 95.5432 11.0634C95.2587 10.939 94.9417 10.8768 94.592 10.8768C94.1357 10.8768 93.7269 10.9864 93.3654 11.2057C93.0098 11.419 92.7283 11.7153 92.5209 12.0945C92.3195 12.4738 92.2187 12.9064 92.2187 13.3923C92.2187 13.7538 92.278 14.0886 92.3965 14.3968C92.515 14.7049 92.6809 14.9745 92.8943 15.2057C93.1076 15.4308 93.3595 15.6057 93.6498 15.7301C93.9402 15.8545 94.2543 15.9168 94.592 15.9168ZM98.9116 16.459V10.3434H99.3738L99.5604 11.1168V16.459H98.9116ZM103.143 16.459L99.276 11.2145L99.3738 10.3434L103.232 15.5879L103.143 16.459ZM103.143 16.459L102.947 15.7212V10.3434H103.605V16.459H103.143Z" fill="white"/>
<path d="M66.9679 33.6012C66.2758 33.6012 65.6263 33.4732 65.0195 33.2172C64.4222 32.9517 63.8959 32.5867 63.4408 32.1221C62.9952 31.6575 62.6444 31.1171 62.3884 30.5008C62.1324 29.8845 62.0044 29.2208 62.0044 28.5097C62.0044 27.7985 62.1324 27.1396 62.3884 26.5328C62.6444 25.9165 62.9999 25.376 63.455 24.9114C63.9102 24.4468 64.4411 24.0865 65.0479 23.8305C65.6642 23.5745 66.3327 23.4465 67.0533 23.4465C67.8402 23.4465 68.5656 23.5982 69.2293 23.9017C69.893 24.2051 70.4476 24.6412 70.8933 25.2101L69.9688 26.1345C69.6559 25.6794 69.2435 25.3334 68.7315 25.0963C68.2195 24.8498 67.6601 24.7265 67.0533 24.7265C66.3327 24.7265 65.6927 24.8877 65.1333 25.2101C64.5833 25.5325 64.1519 25.9781 63.839 26.547C63.5356 27.1159 63.3839 27.7701 63.3839 28.5097C63.3839 29.2587 63.5404 29.9177 63.8533 30.4865C64.1662 31.0554 64.5881 31.5011 65.119 31.8234C65.65 32.1458 66.2568 32.307 66.9395 32.307C67.6316 32.307 68.229 32.1742 68.7315 31.9088C69.2435 31.6433 69.637 31.2545 69.9119 30.7425C70.1869 30.2211 70.3244 29.5858 70.3244 28.8368L71.135 29.4199H66.8684V28.1968H71.7039V28.3959C71.7039 29.5431 71.5001 30.5055 71.0924 31.283C70.6942 32.051 70.1348 32.6294 69.4142 33.0181C68.703 33.4068 67.8876 33.6012 66.9679 33.6012ZM76.3608 33.6012C75.6971 33.6012 75.0998 33.4448 74.5688 33.1319C74.0379 32.819 73.6159 32.3971 73.303 31.8661C72.9902 31.3257 72.8337 30.7236 72.8337 30.0599C72.8337 29.4057 72.9902 28.8178 73.303 28.2963C73.6159 27.7654 74.0379 27.3434 74.5688 27.0305C75.0998 26.7177 75.6971 26.5612 76.3608 26.5612C77.015 26.5612 77.6076 26.7177 78.1386 27.0305C78.679 27.3339 79.1057 27.7511 79.4186 28.2821C79.7315 28.8131 79.8879 29.4057 79.8879 30.0599C79.8879 30.7236 79.7315 31.3257 79.4186 31.8661C79.1057 32.3971 78.679 32.819 78.1386 33.1319C77.6076 33.4448 77.015 33.6012 76.3608 33.6012ZM76.3608 32.3639C76.7875 32.3639 77.1668 32.2643 77.4986 32.0652C77.8305 31.8661 78.0912 31.5959 78.2808 31.2545C78.4705 30.9037 78.5653 30.5055 78.5653 30.0599C78.5653 29.6237 78.4657 29.235 78.2666 28.8937C78.077 28.5523 77.8162 28.2868 77.4844 28.0972C77.162 27.8981 76.7875 27.7985 76.3608 27.7985C75.9342 27.7985 75.5549 27.8981 75.223 28.0972C74.8912 28.2868 74.6305 28.5523 74.4408 28.8937C74.2512 29.235 74.1564 29.6237 74.1564 30.0599C74.1564 30.5055 74.2512 30.9037 74.4408 31.2545C74.6305 31.5959 74.8912 31.8661 75.223 32.0652C75.5549 32.2643 75.9342 32.3639 76.3608 32.3639ZM84.4164 33.6012C83.7527 33.6012 83.1553 33.4448 82.6244 33.1319C82.0934 32.819 81.6715 32.3971 81.3586 31.8661C81.0457 31.3257 80.8893 30.7236 80.8893 30.0599C80.8893 29.4057 81.0457 28.8178 81.3586 28.2963C81.6715 27.7654 82.0934 27.3434 82.6244 27.0305C83.1553 26.7177 83.7527 26.5612 84.4164 26.5612C85.0706 26.5612 85.6632 26.7177 86.1942 27.0305C86.7346 27.3339 87.1613 27.7511 87.4742 28.2821C87.787 28.8131 87.9435 29.4057 87.9435 30.0599C87.9435 30.7236 87.787 31.3257 87.4742 31.8661C87.1613 32.3971 86.7346 32.819 86.1942 33.1319C85.6632 33.4448 85.0706 33.6012 84.4164 33.6012ZM84.4164 32.3639C84.843 32.3639 85.2223 32.2643 85.5542 32.0652C85.886 31.8661 86.1468 31.5959 86.3364 31.2545C86.526 30.9037 86.6208 30.5055 86.6208 30.0599C86.6208 29.6237 86.5213 29.235 86.3222 28.8937C86.1325 28.5523 85.8718 28.2868 85.5399 28.0972C85.2176 27.8981 84.843 27.7985 84.4164 27.7985C83.9897 27.7985 83.6105 27.8981 83.2786 28.0972C82.9468 28.2868 82.686 28.5523 82.4964 28.8937C82.3068 29.235 82.2119 29.6237 82.2119 30.0599C82.2119 30.5055 82.3068 30.9037 82.4964 31.2545C82.686 31.5959 82.9468 31.8661 83.2786 32.0652C83.6105 32.2643 83.9897 32.3639 84.4164 32.3639ZM92.1875 36.4314C91.4953 36.4314 90.879 36.3034 90.3386 36.0474C89.8076 35.7914 89.381 35.4311 89.0586 34.9665L89.8835 34.1274C90.1585 34.4782 90.4856 34.7437 90.8648 34.9239C91.2441 35.1135 91.6945 35.2083 92.2159 35.2083C92.9081 35.2083 93.4533 35.0234 93.8515 34.6537C94.2592 34.2934 94.463 33.8051 94.463 33.1888V31.5105L94.6906 29.9888L94.463 28.4812V26.7034H95.743V33.1888C95.743 33.8335 95.5913 34.3977 95.2879 34.8812C94.994 35.3648 94.5768 35.744 94.0364 36.019C93.5054 36.2939 92.8891 36.4314 92.1875 36.4314ZM92.1875 33.3452C91.5712 33.3452 91.0165 33.1982 90.5235 32.9043C90.0399 32.6104 89.6559 32.2074 89.3715 31.6954C89.087 31.1739 88.9448 30.5908 88.9448 29.9461C88.9448 29.3014 89.087 28.7277 89.3715 28.2252C89.6559 27.7132 90.0399 27.3102 90.5235 27.0163C91.0165 26.7129 91.5712 26.5612 92.1875 26.5612C92.7185 26.5612 93.1878 26.6655 93.5955 26.8741C94.0032 27.0827 94.3256 27.3766 94.5626 27.7559C94.8091 28.1257 94.9419 28.5618 94.9608 29.0643V30.8563C94.9324 31.3494 94.7949 31.7855 94.5484 32.1648C94.3113 32.5345 93.989 32.8237 93.5813 33.0323C93.1736 33.2409 92.709 33.3452 92.1875 33.3452ZM92.4435 32.1363C92.8607 32.1363 93.2257 32.0462 93.5386 31.8661C93.861 31.6859 94.1075 31.4347 94.2782 31.1123C94.4488 30.7805 94.5342 30.3965 94.5342 29.9603C94.5342 29.5242 94.4441 29.1449 94.2639 28.8225C94.0933 28.4907 93.8515 28.2347 93.5386 28.0545C93.2257 27.8649 92.8559 27.7701 92.4293 27.7701C92.0026 27.7701 91.6281 27.8649 91.3057 28.0545C90.9833 28.2347 90.7273 28.4907 90.5377 28.8225C90.3576 29.1449 90.2675 29.5194 90.2675 29.9461C90.2675 30.3728 90.3576 30.752 90.5377 31.0839C90.7273 31.4157 90.9833 31.6765 91.3057 31.8661C91.6376 32.0462 92.0168 32.1363 92.4435 32.1363ZM97.6218 33.459V23.3043H98.9018V33.459H97.6218ZM103.903 33.6012C103.23 33.6012 102.623 33.4495 102.083 33.1461C101.543 32.8332 101.116 32.4113 100.803 31.8803C100.49 31.3494 100.334 30.7473 100.334 30.0741C100.334 29.4104 100.485 28.8131 100.789 28.2821C101.102 27.7511 101.519 27.3339 102.04 27.0305C102.571 26.7177 103.164 26.5612 103.818 26.5612C104.444 26.5612 104.994 26.7034 105.468 26.9879C105.951 27.2723 106.326 27.6658 106.591 28.1683C106.866 28.6708 107.004 29.2397 107.004 29.875C107.004 29.9698 106.999 30.0741 106.99 30.1879C106.98 30.2922 106.961 30.4154 106.933 30.5577H101.23V29.491H106.25L105.781 29.9034C105.781 29.4483 105.7 29.0643 105.539 28.7514C105.378 28.4291 105.15 28.1825 104.856 28.0119C104.562 27.8317 104.207 27.7417 103.79 27.7417C103.354 27.7417 102.97 27.8365 102.638 28.0261C102.306 28.2157 102.05 28.4812 101.87 28.8225C101.69 29.1639 101.599 29.5668 101.599 30.0314C101.599 30.5055 101.694 30.9227 101.884 31.283C102.074 31.6338 102.344 31.9088 102.695 32.1079C103.045 32.2975 103.448 32.3923 103.903 32.3923C104.283 32.3923 104.629 32.3259 104.942 32.1932C105.264 32.0605 105.539 31.8614 105.767 31.5959L106.591 32.435C106.269 32.8142 105.871 33.1034 105.397 33.3025C104.932 33.5017 104.434 33.6012 103.903 33.6012ZM112.481 29.619V28.4528H115.169C115.539 28.4528 115.866 28.3769 116.151 28.2252C116.445 28.0735 116.672 27.8602 116.833 27.5852C117.004 27.3102 117.089 26.9831 117.089 26.6039C117.089 26.2246 117.004 25.8975 116.833 25.6225C116.672 25.3476 116.445 25.1342 116.151 24.9825C115.866 24.8308 115.539 24.755 115.169 24.755H112.481V23.5888H115.255C115.862 23.5888 116.402 23.712 116.876 23.9585C117.36 24.2051 117.739 24.5559 118.014 25.011C118.298 25.4566 118.441 25.9876 118.441 26.6039C118.441 27.2107 118.298 27.7417 118.014 28.1968C117.739 28.6424 117.36 28.9932 116.876 29.2492C116.402 29.4957 115.862 29.619 115.255 29.619H112.481ZM111.585 33.459V23.5888H112.922V33.459H111.585ZM119.983 33.459V23.3043H121.263V33.459H119.983ZM126.009 33.6012C125.392 33.6012 124.833 33.4495 124.33 33.1461C123.828 32.8332 123.43 32.4113 123.136 31.8803C122.851 31.3494 122.709 30.752 122.709 30.0883C122.709 29.4246 122.851 28.8273 123.136 28.2963C123.43 27.7654 123.823 27.3434 124.316 27.0305C124.819 26.7177 125.383 26.5612 126.009 26.5612C126.521 26.5612 126.976 26.6702 127.374 26.8883C127.782 27.0969 128.109 27.3908 128.355 27.7701C128.602 28.1399 128.739 28.5713 128.768 29.0643V31.0981C128.739 31.5817 128.602 32.0131 128.355 32.3923C128.118 32.7716 127.796 33.0702 127.388 33.2883C126.99 33.4969 126.53 33.6012 126.009 33.6012ZM126.222 32.3923C126.857 32.3923 127.369 32.179 127.758 31.7523C128.147 31.3162 128.341 30.7615 128.341 30.0883C128.341 29.6237 128.251 29.2208 128.071 28.8794C127.9 28.5286 127.654 28.2584 127.331 28.0688C127.009 27.8697 126.634 27.7701 126.208 27.7701C125.781 27.7701 125.402 27.8697 125.07 28.0688C124.748 28.2679 124.492 28.5428 124.302 28.8937C124.122 29.235 124.032 29.6285 124.032 30.0741C124.032 30.5292 124.122 30.9322 124.302 31.283C124.492 31.6243 124.752 31.8945 125.084 32.0937C125.416 32.2928 125.795 32.3923 126.222 32.3923ZM128.256 33.459V31.6385L128.497 29.9888L128.256 28.3532V26.7034H129.55V33.459H128.256ZM133.632 33.5159L130.702 26.7034H132.125L134.301 32.0368H133.845L136.135 26.7034H137.557L134.4 33.5159H133.632ZM131.698 36.2892L133.689 32.2074L134.4 33.5159L133.12 36.2892H131.698Z" fill="white"/>
<defs>
<clipPath id="clip0_2271_39013">
<rect width="28.4444" height="28.4444" fill="white" transform="translate(22.2266 7.90332)"/>
</clipPath>
</defs>
</svg>
